<?xml version="1.0" encoding="UTF-8"?>
<svg width="120px" height="38px" viewBox="0 0 120 38" version="1.1" xmlns="http://www.w3.org/2000/svg" xmlns:xlink="http://www.w3.org/1999/xlink">
    <title>logo-color</title>
    <g id="Dektop" stroke="none" stroke-width="1" fill="none" fill-rule="evenodd">
        <g id="Home-Page-Disclaimer" transform="translate(-266.000000, -5566.000000)" fill="#005CAB" fill-rule="nonzero">
            <g id="Footer" transform="translate(225.000000, 5566.000000)">
                <g id="Group" transform="translate(41.000000, 0.000000)">
                    <g id="logo-color">
                        <path d="M17.8138521,28.558952 C17.8138521,27.0474574 17.828014,23.0086511 17.7919656,22.5078237 C17.828014,16.499182 13.4597135,12.2659672 10.6981441,12.5942731 C8.79143821,12.7629322 7.19114419,13.5379916 6.33370588,15.7769091 C5.53806493,17.8729169 6.25002196,20.6461361 8.89572125,21.3014604 C11.7281001,22.0005589 13.3786044,22.5812097 14.5720659,23.4064806 C16.0410405,24.4094229 17.2357894,26.3290468 17.2679755,28.556377 L17.8138521,28.558952 Z" id="Path"></path>
                        <path d="M18.7368086,37.7292576 C13.8026507,37.7292576 8.72711662,36.5047528 3.66177179,34.0839516 L3.53440581,34.0224058 L3.47581746,33.8941854 C1.20233481,29.0628407 0,23.7763135 0,18.6064669 C0,13.4366203 1.15393573,8.38858307 3.42741839,3.56236715 L3.49110138,3.43414674 L3.61846735,3.36875434 C8.3030421,1.13349178 13.4253364,-0.0174459951 18.6094426,0.000199878753 C23.511759,0.000199878753 28.7465006,1.26337534 33.7443415,3.65212143 L33.8717074,3.70982061 L33.9302958,3.83804101 C36.2470829,8.75785783 37.4672489,14.0431028 37.4672489,19.1283239 C37.4672489,24.1917476 36.2954819,29.2577357 33.9761475,34.1737059 L33.9137382,34.3019263 L33.7863722,34.3634721 C29.0757314,36.5837634 23.9369108,37.7316331 18.7355349,37.725411 M4.13047857,33.4236165 C9.05189985,35.752099 13.9618582,36.9279025 18.7368086,36.9279025 C23.7741656,36.9336239 28.7520416,35.8322123 33.3227601,33.7005726 C35.5516646,28.9384669 36.6814008,24.0314721 36.6814008,19.1334528 C36.6814008,14.2097893 35.5032656,9.08994867 33.274361,4.3124565 C28.4242647,2.0160291 23.3550989,0.797778571 18.6094426,0.797778571 C13.5915148,0.782637814 8.63262718,1.88748031 4.08972146,4.03293602 C1.91048963,8.70785188 0.794763685,13.6122822 0.794763685,18.6064669 C0.794763685,23.6006516 1.94869942,28.7358787 4.13047857,33.4223343" id="Shape"></path>
                        <path d="M16.5065502,28.558952 C16.4923266,26.7266763 15.5720738,25.0222334 14.0530322,24.014678 C12.8161032,23.2064939 11.1571182,22.6762432 8.47985967,21.9897351 C7.64718905,21.7796841 6.78782212,21.3019462 6.51704526,20.69869 C5.80768616,21.4210605 5.68056088,23.0387093 5.80768616,23.9865004 C5.95515149,25.0790217 7.22131934,26.8836672 9.13455489,26.9541111 C10.3028363,27.0002199 11.7774896,26.6979514 12.4868487,26.5480979 C13.7072514,26.2829726 15.6395558,27.0604174 15.9446565,28.558952 L16.5065502,28.558952 Z" id="Path"></path>
                        <path d="M18.6850329,3.40611354 C15.4021389,3.40611354 12.5648634,5.55739363 12.5764192,9.27800824 C12.58547,12.4051663 15.1200857,14.0819369 16.0242016,15.2790821 C17.389391,17.0811948 18.1312297,19.2171269 18.2059287,22.4824171 C18.2677486,25.0800686 18.2651728,27.6483031 18.2793398,28.558952 L19.0044357,28.558952 C18.9902686,27.606096 18.9580708,24.8818234 18.9967082,22.403119 C19.0456489,19.1339918 19.8119581,17.0811948 21.1797232,15.2790821 C22.0902787,14.0832159 24.6210307,12.4064453 24.628821,9.27800824 C24.6442131,5.55739363 21.8056496,3.40611354 18.5253315,3.40611354" id="Path"></path>
                        <path d="M19.3928465,28.558952 C19.3928465,27.0474574 19.3748242,23.0086511 19.4134434,22.5078237 C19.3812607,16.499182 23.7439378,12.2659672 26.5039199,12.5942731 C28.4117061,12.7629322 30.0144009,13.5379916 30.8717462,15.7769091 C31.668588,17.8651921 30.9502718,20.6384113 28.3112963,21.2911607 C25.479225,21.9902591 23.825038,22.5709099 22.6265569,23.3961808 C21.162891,24.3991231 20.0519467,26.318747 20.0171895,28.5460772 L19.3928465,28.558952 Z" id="Path"></path>
                        <path d="M20.69869,28.558952 C20.7131045,26.7280409 21.6309309,25.0244972 23.146739,24.0152184 C24.3860162,23.2069026 26.0472831,22.6765655 28.7253928,21.9899455 C29.5528487,21.7798603 30.4197072,21.3020445 30.6828152,20.69869 C31.3958763,21.4198972 31.5242527,23.0378096 31.3984184,23.9857552 C31.2497051,25.0784546 29.9862779,26.8833942 28.0771556,26.9538496 C26.9090574,26.9999658 25.4244669,26.6976481 24.7203032,26.5477702 C23.503905,26.2826016 21.5655484,27.0601732 21.2592246,28.558952 L20.69869,28.558952 Z" id="Path"></path>
                        <path d="M21.6309381,34.8471616 L21.2227074,31.861266 L22.211978,31.7133501 C22.4486516,31.6807585 22.7391715,31.7233783 22.8581344,31.8725477 C22.9759574,32.0110603 23.0446486,32.1847273 23.0534841,32.3664364 C23.1093896,32.6444536 22.9785865,32.9266283 22.7304058,33.0633961 L22.7304058,33.0734243 C23.0484751,33.0734243 23.2438247,33.3028193 23.3001756,33.6914119 C23.3209872,33.8396758 23.3243495,33.9898719 23.3101935,34.1389202 C23.2438247,34.5312734 23.0096556,34.6578794 22.6126952,34.7130344 L21.6309381,34.8471616 Z M22.2645721,34.3131601 C22.3791593,34.3087973 22.4916517,34.2810719 22.5951638,34.231681 C22.7354148,34.1401737 22.7203879,33.9408633 22.705361,33.7954544 C22.6552714,33.4707916 22.5688667,33.3466926 22.2270049,33.3980872 L22.0116194,33.4319323 L22.1506181,34.331963 L22.2645721,34.3131601 Z M22.0567001,32.9342831 C22.1919421,32.9129731 22.3685081,32.8966773 22.4411381,32.7725784 C22.5039034,32.6740013 22.5246467,32.5543792 22.4987412,32.4403944 C22.456165,32.2222811 22.3872917,32.0869004 22.1117987,32.1395485 L21.848828,32.1821683 L21.9515118,32.9493254 L22.0567001,32.9342831 Z" id="Shape"></path>
                        <path d="M26.1566862,33.0044921 C26.1643916,33.061898 26.1720971,33.1205519 26.1746656,33.1767099 C26.2607098,33.7183225 26.1566862,34.1663385 25.5325441,34.291134 C24.6040364,34.4658478 24.4268108,33.9042679 24.263712,33.1205519 L24.1763834,32.6974951 C24.0479591,31.9487219 23.9940209,31.3809022 24.9006965,31.1999487 C25.4066882,31.1100959 25.7444442,31.3097687 25.8831424,31.8002152 C25.9091511,31.8717793 25.929333,31.9452187 25.9435018,32.0198553 L25.3887088,32.1334192 C25.3232124,31.9462259 25.2435894,31.6180137 24.9918777,31.6417248 C24.5436769,31.6953869 24.6952176,32.2369995 24.7350291,32.4641274 L24.9045492,33.2777943 C24.950782,33.5273854 25.0522372,33.9142515 25.4387943,33.8393742 C25.7534339,33.7769764 25.6147356,33.3027534 25.5864823,33.1068244 L26.1566862,33.0044921 Z" id="Path"></path>
                        <path d="M26.9217254,33.7991266 L26.7248908,30.6200014 L27.4886091,30.3930131 L29.0829694,33.1555633 L28.48328,33.3322531 L28.1040453,32.6280736 L27.44793,32.8266883 L27.5319127,33.6224369 L26.9217254,33.7991266 Z M27.3836307,32.3120956 L27.8639071,32.1728074 L27.2274752,30.8908396 L27.3836307,32.3120956 Z" id="Shape"></path>
                        <path d="M8.65596429,31.5182067 C8.88915568,30.7622298 9.09800291,30.206288 9.98720523,30.4517857 C10.4612756,30.5816786 10.755968,30.7985998 10.7418741,31.3610362 C10.730565,31.4881019 10.7073985,31.6137945 10.6726854,31.7364268 L10.1178949,31.5805553 C10.1947712,31.272709 10.2383344,31.0259125 9.86164064,30.9090088 C9.42857092,30.7869095 9.32094413,31.3220684 9.26200564,31.5584735 L9.03650189,32.3962829 C8.96603196,32.6456774 8.88274932,33.056139 9.26200564,33.1626513 C9.5771984,33.2509785 9.77451419,32.9353386 9.88085971,32.4742187 L9.4964783,32.3716033 L9.62588671,31.8858037 L10.5355894,32.1832585 L10.1025197,33.7991266 L9.68354392,33.6848209 L9.77579546,33.3419035 L9.76682656,33.3419035 C9.63564234,33.56554 9.37491423,33.6749691 9.12619088,33.6107819 C8.21776949,33.3613874 8.31258357,32.7599832 8.53296224,31.9572448 L8.65596429,31.5182067 Z" id="Path"></path>
                        <path d="M12.1267669,32.7402148 L11.8639384,34.0065582 L11.2663755,33.8814255 L11.8998913,30.9170306 L12.916492,31.1485262 C13.5078561,31.2736589 13.6876208,31.545197 13.6057969,32.0957811 C13.5562066,32.4136183 13.4037165,32.7514767 13.0218714,32.7214449 L13.0218714,32.7214449 C13.3392491,32.8315617 13.3677636,32.9929829 13.3132143,33.2732803 C13.2896589,33.3984131 13.1222917,34.1166751 13.2375891,34.2342999 L13.2375891,34.3231441 L12.6288684,34.1567175 C12.6015938,33.9552538 12.6883768,33.5948715 12.7230899,33.3946591 C12.7578031,33.2169706 12.8123524,32.970459 12.6350672,32.8791121 C12.5263884,32.8227839 12.409,32.785546 12.2879353,32.7689953 L12.1267669,32.7402148 Z M12.2271872,32.2822289 L12.6288684,32.3898431 C12.8768198,32.4248802 13.008234,32.2972448 13.0603038,32.0019315 C13.1012158,31.7291421 13.0429472,31.6265333 12.8272295,31.5714749 L12.3957941,31.4826306 L12.2271872,32.2822289 Z" id="Shape"></path>
                        <path d="M15.8769146,31.6027487 L16.5065502,31.6731071 L16.2419974,33.7233732 C16.109721,34.373879 15.8359089,34.6590154 15.0739968,34.5689074 C14.3120848,34.4787993 14.1083792,34.1479918 14.1546759,33.4913142 L14.4298108,31.441048 L15.0634147,31.510172 L14.7896026,33.5135326 C14.7631473,33.7320137 14.7062685,34.0554151 15.1202936,34.0924458 C15.488022,34.1183673 15.5766472,33.89248 15.6136845,33.6098124 L15.8769146,31.6027487 Z" id="Path"></path>
                        <path d="M17.2925764,34.8015571 L17.4787747,31.7030568 L18.6857619,31.7551762 C19.2549211,31.7838419 19.4067849,32.2424929 19.3869766,32.6802961 C19.3724505,32.9487112 19.287935,33.244489 19.0515556,33.4086652 C18.8526084,33.5326541 18.6176277,33.5880976 18.3833548,33.5663265 L17.9871883,33.5441757 L17.9119167,34.8471616 L17.2925764,34.8015571 Z M17.9964322,33.0711919 L18.3199682,33.0881307 C18.5840792,33.0972516 18.7491485,32.9969217 18.7702774,32.6190558 C18.7914063,32.2411899 18.6474658,32.2007974 18.3094037,32.1825556 L18.0558572,32.1825556 L17.9964322,33.0711919 Z" id="Shape"></path>
                        <path d="M99.5633188,6.27035116 L94.9248672,14.7172724 C93.1765081,13.2878723 91.0411857,12.2405002 88.3132857,12.2405002 C81.8626197,12.2405002 79.245828,17.0696931 79.245828,20.466922 C79.245828,22.9924092 80.8932957,26.7152593 86.6351675,26.7152593 C89.0437908,26.7152593 92.4702681,25.0333105 93.4536402,24.2679725 L88.8726585,34.0673754 C86.6862518,34.5032463 85.9697949,34.7750246 84.1141588,34.8365593 C73.8398353,35.1416689 69.6828529,28.8112854 69.6943231,22.334757 C69.6943231,13.7750221 77.282915,3.36155404 89.8470909,3.36155404 C90.6133549,3.36155404 91.559691,3.6307684 92.3655453,3.92562223 L93.1803394,2.88209607 L99.5633188,6.27035116 Z" id="Path"></path>
                        <path d="M118.680764,3.1441048 L120,33.7978466 L110.192272,33.7978466 L110.192272,28.5380552 L103.498658,28.5380552 L101.296086,33.7991266 L90.6550218,33.7991266 L101.776857,11.9099971 L99.2678736,11.8971965 L104.031993,3.14666494 L118.680764,3.1441048 Z M110.124323,12.5205886 L106.339694,21.4375288 L110.233298,21.4375288 L110.124323,12.5205886 Z" id="Shape"></path>
                        <path d="M63.3924978,3.15604793 C68.2582397,3.18164035 71.0043668,5.81382028 71.0043668,9.61429398 C71.0043668,13.1191753 68.1041792,16.2222557 64.9215476,17.8243409 C68.1991832,19.0246252 68.4829111,21.9715918 68.4829111,24.0560941 C68.4829111,29.0914018 63.4117554,33.7991266 56.8243882,33.7991266 L42.4454148,33.7991266 L48.0544983,12.2221611 L45.7551464,12.2093649 L50.4629763,3.15604793 C50.4629763,3.15604793 59.4369963,3.12917589 63.3924978,3.15604793 M58.6191922,15.579886 C59.6257203,15.579886 61.4038344,15.3239619 61.8467582,13.3853364 C62.3371839,11.2790806 60.6656282,11.2227773 59.8670817,11.2227773 L57.0092607,11.2074218 L56.0104356,15.579886 L58.6191922,15.579886 Z M54.5840928,20.9914023 L53.26816,26.0292693 L56.6330965,26.0292693 C57.9554485,26.0292693 59.7592394,25.3741035 60.2047308,23.7349092 C60.6502222,22.095715 59.3779398,20.9914023 58.0594393,20.9914023 L54.5840928,20.9914023 Z" id="Shape"></path>
                    </g>
                </g>
            </g>
        </g>
    </g>
</svg>